<svg xmlns="http://www.w3.org/2000/svg" viewBox="0 0 192 192" width="192" height="192">
  <defs>
    <linearGradient id="bg" x1="0" y1="0" x2="1" y2="1">
      <stop offset="0%" stop-color="#a8edea"/>
      <stop offset="100%" stop-color="#fed6e3"/>
    </linearGradient>
  </defs>
  <rect width="192" height="192" rx="40" fill="url(#bg)"/>
  <g transform="translate(24, 34)">
    <!-- 4 puzzle pieces -->
    <!-- Top-left piece -->
    <path d="M0,0 H55 C55,0 55,-12 65,-12 C75,-12 75,0 75,0 H144 V50 C144,50 156,50 156,60 C156,70 144,70 144,70 V124 H75 C75,124 75,112 65,112 C55,112 55,124 55,124 H0 V70 C0,70 12,70 12,60 C12,50 0,50 0,50 Z" fill="#667eea" opacity="0.85"/>
    <!-- Top-right piece with tab -->
    <path d="M75,0 C75,0 75,-12 65,-12 C55,-12 55,0 55,0" fill="none" stroke="#fff" stroke-width="2" opacity="0.5"/>
    <!-- Decorative lines -->
    <line x1="0" y1="62" x2="144" y2="62" stroke="#fff" stroke-width="1.5" opacity="0.3"/>
    <line x1="72" y1="0" x2="72" y2="124" stroke="#fff" stroke-width="1.5" opacity="0.3"/>
  </g>
  <text x="96" y="172" text-anchor="middle" font-family="sans-serif" font-size="18" font-weight="bold" fill="#4a3f6b">パズル</text>
</svg>
