<svg xmlns="http://www.w3.org/2000/svg" viewBox="0 0 512 512" width="512" height="512">
  <defs>
    <linearGradient id="bg" x1="0" y1="0" x2="1" y2="1">
      <stop offset="0%" stop-color="#a8edea"/>
      <stop offset="100%" stop-color="#fed6e3"/>
    </linearGradient>
  </defs>
  <rect width="512" height="512" rx="96" fill="url(#bg)"/>
  <g transform="translate(56, 76)">
    <path d="M0,0 H160 C160,0 160,-30 185,-30 C210,-30 210,0 210,0 H400 V140 C400,140 430,140 430,165 C430,190 400,190 400,190 V330 H210 C210,330 210,300 185,300 C160,300 160,330 160,330 H0 V190 C0,190 30,190 30,165 C30,140 0,140 0,140 Z" fill="#667eea" opacity="0.8"/>
    <line x1="0" y1="165" x2="400" y2="165" stroke="#fff" stroke-width="3" opacity="0.3"/>
    <line x1="200" y1="0" x2="200" y2="330" stroke="#fff" stroke-width="3" opacity="0.3"/>
  </g>
  <text x="256" y="460" text-anchor="middle" font-family="sans-serif" font-size="48" font-weight="bold" fill="#4a3f6b">パズル</text>
</svg>
